<svg width="80" height="80" viewBox="0 0 80 80" fill="none" xmlns="http://www.w3.org/2000/svg">
<path opacity="0.34" d="M40 80C61.8824 80 80 61.8431 80 40C80 18.1176 61.8431 0 39.9608 0C18.1176 0 0 18.1176 0 40C0 61.8431 18.1569 80 40 80ZM26.1569 57.098C24.3922 57.098 22.9412 55.6078 22.9412 53.8039C22.9412 52.9412 23.2941 52.1569 23.8824 51.5294L35.3726 40.0392L23.8824 28.549C23.2941 27.9216 22.9412 27.1373 22.9412 26.2745C22.9412 24.4706 24.3922 23.0588 26.1569 23.0588C27.098 23.0588 27.8431 23.3725 28.4314 24L39.9608 35.4902L51.6078 23.9608C52.2745 23.2941 52.9804 22.9804 53.8431 22.9804C55.6078 22.9804 57.0588 24.4314 57.0588 26.1961C57.0588 27.098 56.7843 27.8039 56.1176 28.5098L44.5882 40.0392L56.0784 51.4902C56.7059 52.1569 57.0196 52.902 57.0196 53.8039C57.0196 55.6078 55.5686 57.098 53.7647 57.098C52.8627 57.098 52.0784 56.7059 51.451 56.1176L39.9608 44.6275L28.549 56.1176C27.9216 56.7451 27.098 57.098 26.1569 57.098Z" fill="black"/>
</svg>
