<svg width="60" height="60" viewBox="0 0 60 60" fill="none" xmlns="http://www.w3.org/2000/svg">
<path opacity="0.34" d="M30 60C46.4118 60 60 46.3824 60 30C60 13.5882 46.3824 0 29.9706 0C13.5882 0 0 13.5882 0 30C0 46.3824 13.6176 60 30 60ZM19.6176 42.8235C18.2941 42.8235 17.2059 41.7059 17.2059 40.3529C17.2059 39.7059 17.4706 39.1176 17.9118 38.6471L26.5294 30.0294L17.9118 21.4118C17.4706 20.9412 17.2059 20.3529 17.2059 19.7059C17.2059 18.3529 18.2941 17.2941 19.6176 17.2941C20.3235 17.2941 20.8824 17.5294 21.3235 18L29.9706 26.6176L38.7059 17.9706C39.2059 17.4706 39.7353 17.2353 40.3824 17.2353C41.7059 17.2353 42.7941 18.3235 42.7941 19.6471C42.7941 20.3235 42.5882 20.8529 42.0882 21.3824L33.4412 30.0294L42.0588 38.6176C42.5294 39.1176 42.7647 39.6765 42.7647 40.3529C42.7647 41.7059 41.6765 42.8235 40.3235 42.8235C39.6471 42.8235 39.0588 42.5294 38.5882 42.0882L29.9706 33.4706L21.4118 42.0882C20.9412 42.5588 20.3235 42.8235 19.6176 42.8235Z" fill="black"/>
</svg>
